PathFileType	4	(X/Y/Z)	C:\Users\u0088756\Documents\documenten\software\SoftwareProjects\DC_TrackingSimulation\Data\Patient20\InputData\MarkerFile_DataSel.trc
DataRate	CameraRate	NumFrames	NumMarkers	Units	OrigDataRate	OrigDataStartFrame	OrigNumFrames
200.000000	200.000000	8	47	m	200.000000	29	230
Frame#	Times		C7		CLAV		LSHO		LUA1		LELB		LLA1		LWRA		LWRB		LFIN		RSHO		RUA1		RELB		RLA1		RWRA		RWRB		RFIN		LASI		RASI		RPSI		LPSI		LTHI		LTHI3		LKNE		LKNEmed		LTIB		LTIB2		LTIB3		LANKmed		LHEE		LTOE		LLatFoot		RTHI		RTHI2		RTHI3		RKNE		RKNEmed		RTIB		RTIB2		RTIB3		RANK		RHEE		RTOE		RLatFoot		Unlabeled50		Unlabeled51		Unlabeled52		*52
			X1	Y1	Z1	X2	Y2	Z2	X3	Y3	Z3	X4	Y4	Z4	X5	Y5	Z5	X6	Y6	Z6	X7	Y7	Z7	X8	Y8	Z8	X9	Y9	Z9	X10	Y10	Z10	X11	Y11	Z11	X12	Y12	Z12	X13	Y13	Z13	X14	Y14	Z14	X15	Y15	Z15	X16	Y16	Z16	X17	Y17	Z17	X18	Y18	Z18	X19	Y19	Z19	X20	Y20	Z20	X21	Y21	Z21	X22	Y22	Z22	X23	Y23	Z23	X24	Y24	Z24	X25	Y25	Z25	X26	Y26	Z26	X27	Y27	Z27	X28	Y28	Z28	X29	Y29	Z29	X30	Y30	Z30	X31	Y31	Z31	X32	Y32	Z32	X33	Y33	Z33	X34	Y34	Z34	X35	Y35	Z35	X36	Y36	Z36	X37	Y37	Z37	X38	Y38	Z38	X39	Y39	Z39	X40	Y40	Z40	X41	Y41	Z41	X42	Y42	Z42	X43	Y43	Z43	X44	Y44	Z44	X45	Y45	Z45	X46	Y46	Z46	X47	Y47	Z47

29	0.14	0.38341	1.387	0.011648	0.50655	1.3156	-0.011247	0.42709	1.3333	-0.18473	0.32926	1.2003	-0.2129	0.30895	1.081	-0.24908	0.31165	0.98126	-0.30299	0.35424	0.85383	-0.31907	0.28332	0.86287	-0.32774	0.31794	0.81689	-0.36653	0.44652	1.3364	0.18476	0.44509	1.1814	0.2389	0.4728	1.0403	0.25962	0.57134	0.96047	0.2672	0.66122	0.89004	0.20325	0.62012	0.85144	0.24732	0.6981	0.84643	0.24092	0.52509	0.90428	-0.10863	0.52277	0.89649	0.098493	0.32875	0.93548	0.034452	0.33145	0.93757	-0.03912	0.54847	0.63947	-0.16167	0.54014	0.59456	-0.1579	0.59366	0.47448	-0.1228	0.56193	0.46421	-0.0006963	0.62759	0.40543	-0.11617	0.55655	0.39669	-0.14586	0.60163	0.36209	-0.14645	0.62323	0.10483	-0.039829	0.54597	0.051759	-0.07192	0.73336	0.06911	-0.048903	0.672	0.033782	-0.13394	0.45109	0.6073	0.14958	0.39255	0.6146	0.17351	0.41097	0.56538	0.15934	0.36207	0.4399	0.14353	0.37736	0.43146	0.017105	0.27172	0.3141	0.1658	0.23112	0.35074	0.16724	0.21699	0.29852	0.16556	0.11136	0.16746	0.14018	0.02795	0.19037	0.088819	0.15516	0.055318	0.067291	0.097943	0.081573	0.15061	0.45995	0.031954	-0.54822	-0.1675	0.025046	-0.53321	-0.12035	0.02565	0.53891	0.38727	0.033649	0.53838
30	0.145	0.38904	1.3878	0.010619	0.51228	1.3164	-0.012215	0.4329	1.3341	-0.18561	0.33563	1.2008	-0.21416	0.31577	1.0813	-0.25034	0.31907	0.98161	-0.30442	0.3629	0.85473	-0.3208	0.29191	0.86307	-0.32929	0.32682	0.81747	-0.36813	0.45224	1.3375	0.18379	0.45031	1.1826	0.23826	0.47688	1.0414	0.25894	0.57518	0.96114	0.26681	0.66472	0.89025	0.203	0.62355	0.85194	0.24698	0.70152	0.84647	0.24064	0.53094	0.90518	-0.10947	0.52815	0.89711	0.097728	0.33454	0.93605	0.033355	0.33594	0.93832	-0.039716	0.55503	0.64069	-0.16152	0.54668	0.59579	-0.15805	0.59787	0.47427	-0.1229	0.56702	0.46435	-0.00055854	0.63122	0.40497	-0.11633	0.56011	0.39674	-0.14607	0.60493	0.36183	-0.14648	0.62363	0.10453	-0.039718	0.54604	0.051545	-0.071769	0.73357	0.068578	-0.048833	0.67212	0.033687	-0.13391	0.45964	0.60715	0.14878	0.40096	0.6138	0.17277	0.42016	0.56491	0.15857	0.37274	0.43912	0.14317	0.38997	0.43039	0.017194	0.2816	0.31464	0.16535	0.24152	0.35181	0.16725	0.22659	0.29974	0.16527	0.11942	0.17144	0.13982	0.03698	0.19768	0.088905	0.15859	0.057404	0.067254	0.10296	0.086439	0.15094	0.46557	0.032109	-0.54822	-0.16138	0.025034	-0.53376	-0.1148	0.025683	0.53888	0.39258	0.033415	0.5383
31	0.15	0.39461	1.3886	0.0095891	0.51795	1.3173	-0.013089	0.43872	1.3349	-0.18649	0.342	1.2012	-0.2154	0.3226	1.0817	-0.25165	0.32682	0.98213	-0.3059	0.3717	0.8556	-0.3225	0.30062	0.86327	-0.33084	0.33584	0.81798	-0.36966	0.45788	1.3386	0.18286	0.45552	1.1838	0.23773	0.48098	1.0425	0.25829	0.57895	0.96179	0.26641	0.66835	0.89049	0.20276	0.62693	0.8524	0.24672	0.70487	0.84642	0.24039	0.53672	0.906	-0.11027	0.53333	0.89769	0.097034	0.34011	0.93667	0.032644	0.34136	0.93903	-0.040396	0.56097	0.64185	-0.16149	0.55256	0.59706	-0.15821	0.60163	0.47412	-0.12311	0.5719	0.4644	-0.00049277	0.63452	0.40456	-0.11645	0.56339	0.39678	-0.14622	0.60813	0.36162	-0.14687	0.62401	0.10429	-0.039607	0.54615	0.051722	-0.072079	0.73379	0.068107	-0.048763	0.67226	0.033562	-0.13396	0.46898	0.60719	0.14793	0.40918	0.61336	0.17189	0.42916	0.5645	0.15781	0.3836	0.43842	0.14276	0.40111	0.42973	0.016581	0.29131	0.31455	0.16451	0.25204	0.35296	0.16736	0.23642	0.30104	0.16482	0.12769	0.17538	0.13939	0.046521	0.20498	0.08889	0.16235	0.059767	0.067188	0.10836	0.091493	0.15104	0.47101	0.032161	-0.54825	-0.15572	0.025109	-0.53394	-0.10947	0.025663	0.53896	0.39822	0.03361	0.53833
32	0.155	0.40017	1.3893	0.0085613	0.52357	1.318	-0.013927	0.44457	1.3356	-0.18729	0.34847	1.2017	-0.21712	0.3295	1.082	-0.25296	0.33457	0.9825	-0.30735	0.38028	0.85649	-0.32439	0.30945	0.86341	-0.33243	0.34511	0.81852	-0.37126	0.4634	1.3396	0.18192	0.46065	1.185	0.23725	0.4851	1.0436	0.25765	0.58263	0.9624	0.26605	0.6719	0.89065	0.20256	0.63021	0.85282	0.24652	0.70802	0.84619	0.24018	0.54241	0.90678	-0.11109	0.5385	0.89826	0.096339	0.34553	0.9373	0.031942	0.3469	0.93965	-0.041037	0.56624	0.64269	-0.16158	0.55745	0.59794	-0.15856	0.60505	0.47401	-0.12338	0.5765	0.46437	-0.00050515	0.63769	0.40415	-0.11666	0.56644	0.3968	-0.14627	0.61077	0.36123	-0.14668	0.62436	0.10399	-0.039449	0.54631	0.05144	-0.071735	0.73393	0.067664	-0.048701	0.67232	0.033433	-0.13393	0.47807	0.60739	0.14707	0.41759	0.61274	0.17107	0.43818	0.56416	0.15707	0.39423	0.43778	0.14231	0.41288	0.42884	0.015818	0.30178	0.31584	0.1642	0.26265	0.3541	0.16729	0.24632	0.30242	0.16446	0.13541	0.17917	0.13925	0.056651	0.21227	0.088716	0.16585	0.062145	0.066943	0.11259	0.098033	0.15345	0.47642	0.032091	-0.54819	-0.15103	0.025058	-0.53326	-0.10397	0.025676	0.53893	0.40372	0.033627	0.53831
33	0.16	0.40567	1.3901	0.0076008	0.52916	1.3188	-0.014712	0.45042	1.3363	-0.1881	0.35501	1.202	-0.21788	0.33654	1.0822	-0.25431	0.34243	0.98287	-0.30884	0.38954	0.85737	-0.3259	0.31844	0.86351	-0.33399	0.35453	0.81905	-0.37287	0.46882	1.3407	0.18108	0.46571	1.1863	0.23677	0.48919	1.0447	0.2571	0.58629	0.96298	0.26579	0.67536	0.89076	0.20244	0.63338	0.85323	0.24635	0.71117	0.84603	0.24003	0.54806	0.90753	-0.11184	0.5436	0.89874	0.095673	0.35262	0.93735	0.029473	0.35218	0.9404	-0.041697	0.5709	0.64312	-0.1618	0.56156	0.59844	-0.15895	0.60822	0.47402	-0.12378	0.58073	0.46429	-0.00061541	0.64066	0.40379	-0.11679	0.56926	0.39684	-0.14626	0.61342	0.36102	-0.14664	0.62466	0.10374	-0.03928	0.54642	0.051399	-0.071574	0.73406	0.067238	-0.048628	0.67234	0.033239	-0.13392	0.48678	0.60759	0.14614	0.42561	0.6119	0.16999	0.44721	0.56397	0.1563	0.40514	0.43741	0.14194	0.42398	0.4282	0.015114	0.31184	0.31657	0.16373	0.2731	0.35523	0.16732	0.25625	0.30384	0.16416	0.14344	0.18294	0.13895	0.067041	0.21926	0.088363	0.17088	0.065489	0.066749	0.11865	0.10265	0.15305	0.48189	0.031889	-0.54825	-0.14503	0.025037	-0.53373	-0.098379	0.025705	0.53886	0.40914	0.033622	0.53838
34	0.165	0.41116	1.391	0.0066371	0.53468	1.3196	-0.01544	0.45632	1.337	-0.18887	0.3617	1.2025	-0.21976	0.3436	1.0825	-0.25572	0.35042	0.98326	-0.31031	0.39878	0.85814	-0.32741	0.32752	0.86358	-0.33558	0.36415	0.81956	-0.37446	0.47415	1.3417	0.18026	0.47063	1.1875	0.23629	0.49322	1.0458	0.25662	0.58995	0.96355	0.2655	0.67876	0.8908	0.20234	0.63652	0.85354	0.24628	0.71425	0.84582	0.23992	0.5537	0.90821	-0.11255	0.54862	0.89926	0.095074	0.35826	0.93777	0.02835	0.35761	0.94094	-0.042391	0.57517	0.64319	-0.16213	0.56516	0.59854	-0.15949	0.6111	0.47397	-0.12425	0.58455	0.46425	-0.00089221	0.64352	0.4034	-0.11692	0.57198	0.39694	-0.14621	0.61586	0.36084	-0.14684	0.62485	0.10351	-0.039145	0.54637	0.051214	-0.071545	0.73411	0.066907	-0.048532	0.67238	0.033167	-0.13398	0.49533	0.60794	0.14532	0.43396	0.61146	0.16908	0.45613	0.56391	0.15555	0.41599	0.4372	0.14159	0.43574	0.42741	0.014364	0.32203	0.31736	0.16328	0.28394	0.35652	0.16699	0.26626	0.30539	0.16387	0.15155	0.18657	0.13842	0.077382	0.22587	0.087787	0.17559	0.068222	0.06681	0.12517	0.10768	0.15267	0.48734	0.031868	-0.54824	-0.14014	0.024976	-0.53322	-0.093048	0.025687	0.53894	0.41464	0.033592	0.53833
35	0.17	0.41664	1.3918	0.0057012	0.54018	1.3203	-0.016115	0.46217	1.3376	-0.18961	0.3685	1.203	-0.2217	0.35078	1.0827	-0.25717	0.3584	0.98345	-0.31179	0.40808	0.85891	-0.32893	0.33679	0.86366	-0.33716	0.3739	0.82008	-0.37602	0.47942	1.3428	0.17951	0.47548	1.1888	0.23582	0.49731	1.0468	0.25606	0.59354	0.96408	0.26528	0.68204	0.89081	0.20229	0.63956	0.85387	0.24626	0.71726	0.84554	0.23988	0.55929	0.9089	-0.11321	0.55366	0.89974	0.094468	0.36344	0.9383	0.027712	0.36309	0.94167	-0.043156	0.57918	0.64298	-0.16254	0.56855	0.59846	-0.15998	0.61382	0.47391	-0.12474	0.5879	0.46429	-0.0012179	0.64621	0.40306	-0.11714	0.57447	0.39697	-0.14608	0.61804	0.36055	-0.14687	0.625	0.10332	-0.039048	0.54637	0.051148	-0.071547	0.73418	0.066609	-0.04853	0.67231	0.032987	-0.13384	0.50362	0.60849	0.14461	0.44227	0.61137	0.16835	0.46487	0.56399	0.15485	0.42656	0.43709	0.1412	0.44749	0.42692	0.013748	0.33228	0.31833	0.1629	0.29476	0.35795	0.16678	0.27624	0.30702	0.16363	0.16025	0.19026	0.13796	0.087323	0.23174	0.087088	0.18074	0.071179	0.066434	0.13194	0.11257	0.15234	0.49272	0.031809	-0.54827	-0.13413	0.025149	-0.53368	-0.087678	0.025637	0.53901	0.42011	0.033615	0.53833
36	0.175	0.42207	1.3926	0.004827	0.54562	1.3211	-0.016706	0.46804	1.3382	-0.19035	0.37516	1.2032	-0.22312	0.35808	1.0829	-0.25861	0.36667	0.98358	-0.31326	0.41759	0.85969	-0.33029	0.34618	0.8637	-0.33876	0.38379	0.82056	-0.37758	0.48462	1.3438	0.17879	0.48019	1.19	0.23532	0.50137	1.0479	0.25565	0.59714	0.9646	0.26508	0.68526	0.89077	0.20227	0.64253	0.85417	0.2463	0.72017	0.84523	0.23987	0.56488	0.90958	-0.1138	0.55899	0.90036	0.093671	0.36849	0.93887	0.027304	0.36845	0.94235	-0.043828	0.58291	0.64255	-0.16307	0.57179	0.59819	-0.16041	0.61644	0.47376	-0.12527	0.59051	0.4644	-0.0017267	0.64877	0.40271	-0.11746	0.57684	0.3971	-0.14598	0.62029	0.3604	-0.14703	0.62512	0.10317	-0.038967	0.5463	0.051073	-0.071423	0.73421	0.06633	-0.048519	0.67225	0.032862	-0.13384	0.51192	0.60901	0.14396	0.44878	0.61153	0.16798	0.4734	0.56429	0.15436	0.43738	0.43732	0.14089	0.4588	0.42676	0.013353	0.34261	0.31931	0.16255	0.30553	0.35935	0.16646	0.28638	0.30868	0.16339	0.1691	0.19384	0.13753	0.096835	0.23646	0.086207	0.18688	0.073899	0.066192	0.13992	0.1157	0.15033	0.49832	0.032082	-0.54824	-0.12919	0.025018	-0.53327	-0.081937	0.025731	0.53879	0.42563	0.033606	0.53838
